/* XPM */
static char *_e95b3f4953b44039c9460c38e67ef397rtXjgub12OcuM55[] = {
/* columns rows colors chars-per-pixel */
"32 32 10 1 ",
"  c #A5C543",
". c #111126",
"X c #3C1335",
"o c #282845",
"O c #1B5145",
"+ c #E62A36",
"@ c #BB255B",
"# c #902865",
"$ c #FF727A",
"% c #14AB43",
/* pixels */
"                                ",
"               OO               ",
"               OO               ",
"             OO%%OO oooo        ",
"          OOooo%%ooo%%..        ",
"          OOooo%%ooo%%..        ",
"        OO%%%ooOOooOoo..        ",
"        OO%%%ooOOooOoo..        ",
"      XX..ooO%%OO%%%oo##..      ",
"      XX..ooO%%OO%%%oo##..      ",
"    XX$$$$oo%OO....O%%oo##..    ",
"    XX$$$$ooO..##@@.OOoo##..    ",
"    XX$$$$ooO..##@@.OOoo##..    ",
"   X@@$$$$ooo##++++@oooo@@##.   ",
"   X@@$$$$ooo##++++@oooo@@##.   ",
"   X@@++$$$$$++$$$$$$$++@@##.   ",
"   X@@++$$$$$++$$$$$$$++@@##.   ",
"   X@@++++$$+$$$$$$$++@@##@@.   ",
"   X@@++++$$+$$$$$$$++@@##@@.   ",
"   .@@++++++++++++++@@####@@X   ",
"    ..@@@@+++++++++@####@@XX    ",
"    ..@@@@+++++++++@####@@XX    ",
"    ..####@@@@@@@@@#####@@XX    ",
"    ..####@@@@@@@@@#####@@XX    ",
"      ..############@@@@XX      ",
"      ..############@@@@XX      ",
"        ..XX@@@@@@@@XXXX        ",
"            XXXXXXXX            ",
"            XXXXXXXX            ",
"                                ",
"                                ",
"                                "
};
