/* XPM */
static char *_02fc17702ec426ffaa66d3b22776ca0jY4woJiQSzu8sGlA[] = {
/* columns rows colors chars-per-pixel */
"32 32 169 2 ",
"   c None",
".  c #100E24",
"X  c #0D1224",
"o  c #19132A",
"O  c #181D2E",
"+  c #2D1431",
"@  c #2D1834",
"#  c #351434",
"$  c #3A1436",
"%  c #311935",
"&  c #381834",
"*  c #341A3A",
"=  c #14232D",
"-  c #13312D",
";  c #152B33",
":  c #143333",
">  c #1C383A",
",  c #292037",
"<  c #2A2139",
"1  c #25233F",
"2  c #302137",
"3  c #22393D",
"4  c #431837",
"5  c #47193F",
"6  c #4C1B3F",
"7  c #56193E",
"8  c #5A193E",
"9  c #55173E",
"0  c #43273D",
"q  c #55293D",
"w  c #144533",
"e  c #1A523E",
"r  c #1A743D",
"t  c #1E2C45",
"y  c #1F3046",
"u  c #1D3F46",
"i  c #2B2546",
"p  c #222E44",
"a  c #292D47",
"s  c #2B2B48",
"d  c #382949",
"f  c #253547",
"g  c #283447",
"h  c #233C44",
"j  c #283E47",
"k  c #451D41",
"l  c #4C1D41",
"z  c #5C1940",
"x  c #691E49",
"c  c #721E47",
"v  c #44294F",
"b  c #48294D",
"n  c #5C214D",
"m  c #552F46",
"M  c #50324E",
"N  c #58384F",
"B  c #562753",
"V  c #5C3A53",
"C  c #692B46",
"Z  c #632649",
"A  c #702A48",
"S  c #74244C",
"D  c #692556",
"F  c #652354",
"G  c #732456",
"H  c #7B2456",
"J  c #742558",
"K  c #79265B",
"L  c #6F3756",
"P  c #68315B",
"I  c #793C59",
"U  c #7C2A61",
"Y  c #1E4047",
"T  c #1E5345",
"R  c #1B5B42",
"E  c #1F5348",
"W  c #244346",
"Q  c #254B47",
"!  c #3C424D",
"~  c #245347",
"^  c #225B47",
"/  c #1F6447",
"(  c #1E6847",
")  c #1F7445",
"_  c #1E7B45",
"`  c #206247",
"'  c #217D46",
"]  c #287648",
"[  c #237246",
"{  c #DD2B3D",
"}  c #E52C36",
"|  c #E22B38",
" . c #E6303B",
".. c #861E4C",
"X. c #89204D",
"o. c #832F4E",
"O. c #8A2352",
"+. c #83265B",
"@. c #812A5E",
"#. c #952351",
"$. c #9C2354",
"%. c #922C5A",
"&. c #9B2558",
"*. c #A5244B",
"=. c #BA2948",
"-. c #B92A41",
";. c #BC3A47",
":. c #A5285E",
">. c #AE285F",
",. c #A42855",
"<. c #BB2957",
"1. c #B2295E",
"2. c #BA2958",
"3. c #B6375D",
"4. c #8D2A66",
"5. c #942A65",
"6. c #9B2A64",
"7. c #972B68",
"8. c #A42962",
"9. c #AB2961",
"0. c #B42960",
"q. c #B33B62",
"w. c #CC2945",
"e. c #CE2B4D",
"r. c #D32A45",
"t. c #DB2C41",
"y. c #D12C4A",
"u. c #CF374C",
"i. c #DC384C",
"p. c #C62954",
"a. c #C92A55",
"s. c #CA2D58",
"d. c #D83B5E",
"f. c #EA3A44",
"g. c #E4394A",
"h. c #EB3E48",
"j. c #CE3761",
"k. c #85495D",
"l. c #A04D5E",
"z. c #B14D5F",
"x. c #F0464F",
"c. c #F24C55",
"v. c #F3555E",
"b. c #CE5D69",
"n. c #CA5563",
"m. c #D35D6B",
"M. c #EC5467",
"N. c #F75660",
"B. c #F75A61",
"V. c #F95A62",
"C. c #CC626E",
"Z. c #D0616F",
"A. c #CB6370",
"S. c #D86772",
"D. c #D66372",
"F. c #F9636B",
"G. c #FD696F",
"H. c #E86273",
"J. c #FE6970",
"K. c #F46171",
"L. c #FF757C",
"P. c #FF787E",
"I. c #F47179",
"U. c #198F3F",
"Y. c #1D8545",
"T. c #1E8A46",
"R. c #1E9445",
"E. c #1E9946",
"W. c #208546",
/* pixels */
"                                E E                             ",
"                                / /                             ",
"                            E ( T.T.( E     i i s s             ",
"                            W ` E.E.` W     Q W p 1             ",
"                    E W g i a ~ R.R.~ a i Q ' ) > o             ",
"                    ( ` ~ j a W ' ' W i a Q ' r - .             ",
"                E ( T.E.R.[ j g ^ ^ g a j Q Q 3 = X             ",
"                > T _ R.E.W.^ Q Q Q Q ~ ` ^ f i * %             ",
"            $ + O ; h ~ ` ) W.' / ` ' E.E._ W d F Z @ X         ",
"            C C q 0 i f ^ ) R.Y.T e r U.E.Y.^ ! P D k @         ",
"        $ C z.m.b.l.M W _ T._ R : = - w R ) T.] ! B D n @ X     ",
"        # C m.P.P.Z.V W _ Y.R > < # $ % 3 R Y.Y.W v U J % X     ",
"        # C b.P.P.C.V h R R : , n H O.c % : R R h v U G % X     ",
"        9 o.m.L.L.C.V p u h < 6 O.1.p.*.8 2 h Y f v @.+.l @     ",
"    $ 7 ..3.H.L.L.C.V t t d B O.=.t.t.w.*.S d y p b %.:.+.n @ X ",
"    $ z $.j.M.G.L.S.k.V V L %.<.i.h.h.g.d.q.I N m A ,.0.8.G % X ",
"    $ z $.s.g.c.G.I.S.C.A.n.u.i.v.F.F.F.K.H.D.n.;.-.<.0.6.G % X ",
"    $ z $.p.{ f.v.J.L.L.J.V.x.c.G.L.L.L.L.L.J.N.g.r.<.9.8.H % X ",
"    $ z $.p.t. .f.c.J.J.c.x.B.J.L.L.L.L.L.G.c.g.y.<.8.8.9.O.& X ",
"    + 9 $.a.t.} } f.v.v.f.f.v.F.F.F.F.F.F.v.g.w.<.8.5.6.0.#.4 o ",
"    o 4 #.a.t.} }  .f.f. . .f.h.h.h.h.h.h.g.e.<.8.5.4.6.0.$.7 # ",
"    X # c *.w.t.t.{ | } } } } } } } } | { r.<.8.5.5.5.6.&.X.8 $ ",
"        # 8 *.a.p.e.{ } } } } } } } } { e.<.8.5.5.6.9.&.c 7     ",
"        X & O.0.0.2.y.t.t.t.t.t.t.t.t.y.2.8.5.4.4.6.0.$.8 #     ",
"        X % H 6.6.8.<.p.p.p.p.p.p.p.p.<.8.5.5.4.4.6.0.$.8 $     ",
"        X @ n K 4.6.9.0.>.>.>.>.>.>.>.8.5.5.6.6.6.6.&.X.8 $     ",
"            @ k K 7.6.6.6.6.6.6.6.6.6.5.5.5.9.0.0.&.c 7         ",
"            X @ n J K +.5.6.6.6.6.6.6.6.6.6.&.$.$.X.7 #         ",
"                @ * 5 x &.0.0.1.1.1.1.0.0.&.c 8 8 8             ",
"                X o + 8 X.$.$.$.$.$.$.$.$.X.7 # $ $             ",
"                        8 z z z z z z z z 8                     ",
"                        $ $ $ $ $ $ $ $ $ $                     "
};
