/* XPM */
static char *_e3b94ffb86f4a3595695bc22813d801OKzRwkJvOOWKdXA7[] = {
/* columns rows colors chars-per-pixel */
"32 32 8 1 ",
"  c None",
". c #200E1B",
"X c #381E30",
"o c #522631",
"O c #8B4133",
"+ c #BA4F23",
"@ c #D36900",
"# c #FFA200",
/* pixels */
"                                ",
"                                ",
"          oooooooooooo          ",
"          oooooooooooo          ",
"      oooo@@@@@@@@@@@@oooo      ",
"      oooo@@@@@@@@@@@@oooo      ",
"    oo@@@@oooooooooooo@@@@oo    ",
"  oo@@OOoo++++ooo+++++ooOO@@oo  ",
"  oo@@OOoo++++ooo+++++ooOO@@oo  ",
"  oo@@OOOO++++OOO+++++OOOO@@oo  ",
"  oo@@OOOO++++OOO+++++OOOO@@oo  ",
"oo@@oo++OO++++OOO+++++OO++oo@@oo",
"oo@@oo++OO++++OOO+++++OO++oo@@oo",
"ooooOO++OOOO++OOO+++OOOO++OOoooo",
"ooooOO++OOOO++OOO+++OOOO++OOoooo",
"oo++OO++++OO++OOO+++OO++++OO++oo",
"oo++OO++++OO++OOO+++OO++++OO++oo",
"oo++oo++++OO++OOO+++OO++XXXXXXoo",
"oo++oo++++OO++OOO+++OO++XXXXXXoo",
"oo++oo++++OO++OOO+++OO++XXXXXXoo",
"..++oo++++OO++OOO+++OOOOXX##....",
"..++oo++++OO++OOO+++OOOOXX##....",
"..++OO++++OO+++++OO+++OO........",
"..++OO++++OO+++++OO+++OO........",
"..++oo++++OO+++++OO+++OOOOooOO..",
"..++oo++++OO+++++OO+++OOOOooOO..",
"..++oo++++oo+++++oo+++oo++oo++..",
"..++oo++++oo+++++oo+++oo++oo++..",
"......oo..oooooooooooo..oo......",
"......oo..oooooooooooo..oo......",
"                                ",
"                                "
};
