/* XPM */
static char *_1d4eecbefee467bedbbaef5ae106384KJOb666BDnMY1OiQ[] = {
/* columns rows colors chars-per-pixel */
"32 32 130 2 ",
"   c None",
".  c #1E0E1D",
"X  c #210F1C",
"o  c #22101D",
"O  c #2B141E",
"+  c #2F181A",
"@  c #311A1E",
"#  c #3F1C1F",
"$  c #251123",
"%  c #2C1522",
"&  c #351922",
"*  c #3D1C26",
"=  c #361C2D",
"-  c #471F1F",
";  c #4D2C16",
":  c #48201F",
">  c #52301C",
",  c #421E21",
"<  c #4B2326",
"1  c #45222E",
"2  c #4D242E",
"3  c #512423",
"4  c #50252F",
"5  c #5C2A2C",
"6  c #593523",
"7  c #5E3827",
"8  c #5E3929",
"9  c #442230",
"0  c #4D2535",
"q  c #512634",
"w  c #542933",
"e  c #5A2B32",
"r  c #642E2C",
"t  c #65302F",
"y  c #6C352B",
"u  c #793522",
"i  c #71372A",
"p  c #73382A",
"a  c #7C3B2A",
"s  c #642E31",
"d  c #682F32",
"f  c #663134",
"g  c #6B3131",
"h  c #753631",
"j  c #753933",
"k  c #7B3B34",
"l  c #833927",
"z  c #823928",
"x  c #8C3E2C",
"c  c #843F36",
"v  c #9F4F1A",
"b  c #A35119",
"n  c #AE561A",
"m  c #B55B13",
"M  c #BB5E12",
"N  c #AA6A0C",
"B  c #AD6C10",
"V  c #B16F14",
"C  c #834024",
"Z  c #944125",
"A  c #994225",
"S  c #93422B",
"D  c #9E462B",
"F  c #92482A",
"G  c #9E4B2D",
"H  c #854034",
"J  c #8C4233",
"K  c #954632",
"L  c #984732",
"P  c #994732",
"I  c #9B4730",
"U  c #994832",
"Y  c #9A4832",
"T  c #A0462A",
"R  c #A1462A",
"E  c #A1472A",
"W  c #A0462B",
"Q  c #A2472A",
"!  c #A3472A",
"~  c #A4472A",
"^  c #A2472A",
"/  c #A3482A",
"(  c #A44828",
")  c #A4482A",
"_  c #A5482A",
"`  c #A5492A",
"'  c #A5482B",
"]  c #A6492A",
"[  c #A0492F",
"{  c #A44A2D",
"}  c #A74B2C",
"|  c #A64B2D",
" . c #A74B2D",
".. c #AA4B2A",
"X. c #AB4B2A",
"o. c #AB4C2B",
"O. c #AC4C2A",
"+. c #AD4D2B",
"@. c #AE4D2A",
"#. c #AF4D2A",
"$. c #AE4D2B",
"%. c #B54E27",
"&. c #B14E29",
"*. c #B24E29",
"=. c #B34E29",
"-. c #B34F29",
";. c #B04E2A",
":. c #B14E2A",
">. c #B74F28",
",. c #A55124",
"<. c #B75027",
"1. c #B85027",
"2. c #BB5026",
"3. c #BB5126",
"4. c #BA5027",
"5. c #BB5027",
"6. c #BA5127",
"7. c #BB5127",
"8. c #BC5126",
"9. c #BD5126",
"0. c #BC5127",
"q. c #BD5127",
"w. c #BD5226",
"e. c #BE5226",
"r. c #BF5226",
"t. c #BF5326",
"y. c #BE5227",
"u. c #C36112",
"i. c #C76312",
"p. c #C05327",
/* pixels */
"                    q q q q q q q q q q q q                     ",
"                    i p p p p p p p p p p i                     ",
"            q 0 0 y b m m m m m m m m m m b y 0 0 q             ",
"            i p i C b m m m m m m m m m m b C i p i             ",
"        0 y v m m b C i i p p p p p p i i C b m m v y 0         ",
"        y C n u.M b a d g s w w s g g g d a b M u.n C y         ",
"    q i v n ,.F a a S R R x s s x R R D R S a a F ,.n v i q     ",
"    0 i m i.G k f h ) r.r.) h h ) r.r.r.r.) h f k G i.m i 0     ",
"    0 i m i.G c k J X.r.r.X.J J X.r.3.3.r.X.J k c G i.m i 0     ",
"    i C b n G K J L @.3.3.@.L L @.3.3.3.3.@.L J K G n b C i     ",
"q i b b C a D { L L @.r.3.@.L L @.3.3.3.3.@.L K { D a C b b i q ",
"q y v b p h ~ *.L K { *.<.@.L L @.3.3.>.*.{ K L *.~ h p b v y q ",
"w e y p j J @.@.L J K G *.@.L L @.3.3.*.G K J L @.@.J j p y e w ",
"w e s h c U *.*.G K J L @.@.L L @.3.3.@.L J K { *.*.U c h s e w ",
"q s x D K L @.<.*.{ K L @.@.L L @.3.3.@.L K { *.3.*.I K D x s q ",
"q g R @.J J X.3.3.@.L L @.@.L L @.3.3.@.L L @.%.) S k k S x s q ",
"q g R ) h h R r.3.@.L L @.@.L L @.3.3.@.L L *.) i w 0 0 w e w w ",
"1 r D R g g D r.3.@.L L @.@.L L @.3.3.@.L L { S w 1 8 7 1 = 1 2 ",
"% 3 A R g g D r.r.@.L L @.@.L K @.3.3.@.L J L k 0 8 V B > $ % % ",
". - Z ) h h / r.3.@.L L @.*.G I { *.<.*.G K J j 9 6 N N ; . . X ",
". - Z @.J J X.3.3.@.L L @.3.*.{ I G *.3.*.{ L h * @ ; ; + . X o ",
". - Z @.J J X.3.3.@.L L @.3.r.@.L L @.3.3.*.I j < & % % & & O o ",
". : Z ) h h / r.3.@.L L @.3.3.@.L L @.3.3.@.I H j t 2 4 g 5 & X ",
". : Z ) g g R r.r.o.J J X.r.r.X.J J X.r.r.@.J H L J g f J a , . ",
". : A ) g g R r.p.) h h ) r.r.) h h / r.r.) h h D D g g D Z , . ",
"X # u l 5 5 x R A z s s x R R x s s x R R x 5 5 x x 5 5 l u # X ",
"o O # , & * 5 r 3 < 2 e s g g s e e s g g 5 * * 5 5 * & , # O o ",
"o o . . X % 1 1 % % 1 w q q q q w w q q q 1 % % 1 1 % X . . o o ",
"                                                                ",
"                                                                ",
"                                                                ",
"                                                                "
};
