/* XPM */
static char *f3c90e30915f4042e0a612602781c8728xA285Cw5WDAbujU[] = {
/* columns rows colors chars-per-pixel */
"32 32 126 2 ",
"   c #C0D84B",
".  c #C0D84B",
"X  c #C0D84B",
"o  c #C0D84B",
"O  c #C0D84B",
"+  c #C0D84B",
"@  c #C0D84B",
"#  c #C0D84B",
"$  c #C0D84B",
"%  c #C0D84B",
"&  c #C0D84B",
"*  c #C0D84B",
"=  c #C0D84B",
"-  c #C0D84B",
";  c #C0D84B",
":  c #C0D84B",
">  c #C0D84B",
",  c #C0D84B",
"<  c #C0D84B",
"1  c #C0D84B",
"2  c None",
"3  c #C0D84B",
"4  c #C0D84B",
"5  c #C0D84B",
"6  c #C0D84B",
"7  c #C0D84B",
"8  c #C0D84B",
"9  c #C0D84B",
"0  c #C0D84B",
"q  c #C0D84B",
"w  c #C0D84B",
"e  c #C0D84B",
"r  c #C0D84B",
"t  c #C0D84B",
"y  c #C0D84B",
"u  c #C0D84B",
"i  c #C0D84B",
"p  c #C0D84B",
"a  c #C0D84B",
"s  c #C0D84B",
"d  c #C0D84B",
"f  c #C0D84B",
"g  c #C0D84B",
"h  c #C0D84B",
"j  c #C0D84B",
"k  c #C5DD4C",
"l  c #C3DB4C",
"z  c #C1D94B",
"x  c #CEE64F",
"c  c #CFE74F",
"v  c #CBE34E",
"b  c #BFD74B",
"n  c #D4EC50",
"m  c #D3EB50",
"M  c #D0E84F",
"N  c #C8E04D",
"B  c #D2EA50",
"V  c #C4DC4C",
"C  c #C9E14D",
"Z  c #BDD64A",
"A  c #BAD349",
"S  c #BFD94B",
"D  c #CDE64E",
"F  c #AFCC46",
"G  c #B5D147",
"H  c #CAE34D",
"J  c #D5ED51",
"K  c #C1D84B",
"L  c #B8D249",
"P  c #AAC844",
"I  c #ACCB45",
"U  c #BFDA4A",
"Y  c #CBE54E",
"T  c #D1E94F",
"R  c #BED74B",
"E  c #BBD44A",
"W  c #B9D349",
"Q  c #C2DA4B",
"!  c #AAC945",
"~  c #A6C643",
"^  c #B9D549",
"/  c #CBE44E",
"(  c #D5EC50",
")  c #BBD449",
"_  c #B0CD46",
"`  c #ABC945",
"'  c #BBD54A",
"]  c #B1CD46",
"[  c #A8C744",
"{  c #A4C443",
"}  c #AFCE46",
"|  c #C8E24D",
" . c #D4EB50",
".. c #BED64A",
"X. c #BFD84B",
"o. c #C2D94B",
"O. c #BCD54A",
"+. c #B4CF47",
"@. c #B0CE46",
"#. c #C9E34D",
"$. c #D2E950",
"%. c #BAD449",
"&. c #ACCA45",
"*. c #ADCB45",
"=. c #BFDB4A",
"-. c #C7E04D",
";. c #C2DB4C",
":. c #A9C844",
">. c #B4D048",
",. c #B5D048",
"<. c #A4C543",
"1. c #C2D94C",
"2. c #B4D147",
"3. c #AAC944",
"4. c #A7C643",
"5. c #A5C543",
"6. c #B6D148",
"7. c #B4D047",
"8. c #ABCA45",
"9. c #B7D248",
"0. c #B1CE47",
"q. c #B5D148",
"w. c #A7C644",
"e. c #B1CD47",
"r. c #A3C443",
"t. c white",
/* pixels */
"j j j j j j j j j j j j j j j j j j j . X         o . O +       ",
"j j j j j j j j j j j j j j j j j @ # $ %         o & * = - ; : ",
"j j j j j j j j j j j j j j j j j > , < 1         X . 2 # 3 4 5 ",
"j j j j j j j j j j j j j j j j j 6 7 8 + 9 0     % q # w j j j ",
"j j j j j j j j j j j j j j j j j e r t y u %     i p a # j j j ",
"k k k k k k k l z j j j j j j j j j j j j s d ; + ; f 7 6 j j j ",
"x x x x x c c v l b j j j j j j j j j j j g > t h t 3 r e j j j ",
"n n n m m n n M N l z j j j j z l k k l z j j j j j j j j j j j ",
"n n m m m m m B M v l b j j j l v c c v l b j j j j j j j j j j ",
"x c B m m m m m n M N l z b b k c n n M N l z j j j j j j j j j ",
"V N c m m m m m m B M v l b b k c n n B M v l j j j j j j j j j ",
"V N c m m m m m m m n M N l z l v M B m n c V b j j j j j j j j ",
"x c B m m m m m m m m B M v l z l C M n n c V b j j j j j j j j ",
"m m m m m B c c B m m n n c k Z A S D n n M N l z j j j j j j j ",
"m m m m m c N N M n n n n c k A F G H J n B M v l j j j j j j K ",
"m m m n n x V l v c c c c v V L P I U Y T n n c k j j j j R E W ",
"m m m n n c V j l k k k k V Q W ! ~ I ^ / n ( c k j j z K ) _ ` ",
"x x x c c v V j j j j j j j j ' ] [ { } |  .T v V ..) ' X.W ` { ",
"k k k k k V o.j j j j j j j j b O.+.[ @.#.$.C l z ) _ ] O.%.&.{ ",
"j j j j j R E W W W W W W ' b z o.A ` *.=.-.;.j K W ` :.>.,.! <.",
"j j j j K ' ] ` ` &.&.` ` ] O.o.1.%.` ~ I 2.Z z z W ` ~ P 3.4.5.",
"j j j b ' +.:.{ { <.<.{ { :.>.%.%.6.F :.5.:.7.O.j %.&.{ { 5.5.5.",
"j j j E _ :.5.{ <.5.5.<.<.~ P 8.` F 9.,.P 5.:.0.O.%.&.{ { 5.5.5.",
"j j j E _ ` &.! 4.5.5.5.5.5.5.{ { P q.6.! { { P ,.,.! 5.5.5.5.5.",
"j j j R ' %.%.,.! 5.5.5.5.5.5.<.<.~ ! ! w.5.<.~ 3.! 4.5.5.5.5.5.",
"j j j b O.%.) ,.! 5.5.5.5.5.5.5.5.5.5.5.5.5.5.5.5.5.5.5.5.5.5.5.",
"j j z O.e.&.&.! 4.5.5.5.5.5.5.5.5.5.5.5.5.5.5.5.5.5.5.5.5.5.5.5.",
"j b ' +.:.r.{ { 5.5.5.5.5.5.5.5.5.5.5.5.5.5.5.5.5.5.5.5.5.5.5.5.",
"K ' _ :.5.{ { { 5.5.5.5.5.5.5.5.5.5.5.5.5.5.5.<.<.5.5.5.5.5.5.5.",
"K ' _ ` ` &.&.! 4.5.5.5.5.5.5.5.5.5.5.5.5.4.! &.&.! 4.5.5.5.5.5.",
"j R E W W %.%.,.3.5.5.5.5.5.5.5.5.5.5.5.5.3.,.%.%.,.3.5.5.5.5.5.",
"j j K z z z z %.&.<.5.5.5.5.5.5.5.5.5.5.<.&.%.1.1.%.&.<.5.5.5.5."
};
