/* XPM */
static char *_87c030f591943d6d623e338c65a53cfP6GTLHj8VZCJKu5C[] = {
/* columns rows colors chars-per-pixel */
"32 32 3 1 ",
"  c #A6C642",
". c #C1D94A",
"X c #D5EC50",
/* pixels */
"................................",
"................................",
"................................",
"................................",
"................................",
"................................",
"XXXXXXXX........................",
"XXXXXXXX........................",
"XXXXXXXXXX......XXXX............",
"XXXXXXXXXX......XXXX............",
"..XXXXXXXXXX....XXXXXX..........",
"..XXXXXXXXXX....XXXXXX..........",
"XXXXXXXXXXXXXX....XXXX..........",
"XXXXXXXXXXXXXX....XXXX..........",
"XXXXXX..XXXXXX..  XXXXXX........",
"XXXXXX..XXXXXX..  XXXXXX........",
"XXXXXX..........    XXXX......  ",
"XXXXXX..........    XXXX......  ",
"..................  XX....  ..  ",
"..................  XX....  ..  ",
"......        ....    ....      ",
"......        ....    ....      ",
"....              ..    ..      ",
"....              ..    ..      ",
"........                        ",
"........                        ",
"....                            ",
"....                            ",
"..                              ",
"..                              ",
"........              ....      ",
"........              ....      "
};
