/* XPM */
static char *_d0a9d13bc084a4ce113088f0ca2e5f6pzaX1uok89WC6RQT[] = {
/* columns rows colors chars-per-pixel */
"32 32 20 1 ",
"  c None",
". c #111126",
"X c #230F25",
"o c #5A0C0E",
"O c #7F1718",
"+ c #44222A",
"@ c #562D26",
"# c #572D27",
"$ c #623234",
"% c #282845",
"& c #444A67",
"* c #8B4133",
"= c #B66B4D",
"- c #BE7447",
"; c #FF727A",
": c #E19E67",
"> c #FFA79D",
", c #FFC380",
"< c #FECCB1",
"1 c #FFEAA7",
/* pixels */
"                                ",
"                                ",
"                                ",
"           XXXXXX@@@@           ",
"         XX=*****,,,1@@         ",
"         XX=*****,,,1@@         ",
"        X===***,,,11111@        ",
"      XX$======11111111:@@      ",
"      XX$======11111111:@@      ",
"      XX$***===11111,,,:@@      ",
"      XX$$$$$$$:::::,,,:@@      ",
"      XX$$$$$$$:::::,,,:@@      ",
"      XX+$$<$$$::<:::,,:@@      ",
"      XX<$$.$$<<<.::-<<-@@      ",
"      XX<$$.$$<<<.::-<<-@@      ",
"      XX<$$.<<<<<.::-<<-@@      ",
"      XX+$$><<<<<>::---@        ",
"      XX+$$><<<<<>::---@        ",
"        X$$oooOOOO::-@@         ",
"        X$$oooOOOO::-@@         ",
"         $$%%%<<<&::O           ",
"         oo%&&&&&&&&<OO         ",
"         oo%&&&&&&&&<OO         ",
"         oo%&&&&&&&&<OO         ",
"        o;;o<<<<<<oo<<<O        ",
"        o;;o<<<<<<oo<<<O        ",
"        o;;%%%&&&&&&<<<O        ",
"        ooo%%%%..&&&OOOO        ",
"        ooo%%%%..&&&OOOO        ",
"           ....  ....           ",
"                                ",
"                                "
};
