/* XPM */
static char *f19898d3cfae4d09946308765cf63001BEft2jCWoQM7ACqd[] = {
/* columns rows colors chars-per-pixel */
"32 32 174 2 ",
"   c None",
".  c #1E0D26",
"X  c #121225",
"o  c #19192F",
"O  c #1A1A31",
"+  c #251127",
"@  c #2B1326",
"#  c #331726",
"$  c #391C29",
"%  c #1E2035",
"&  c #22233B",
"*  c #30263F",
"=  c #332C39",
"-  c #302731",
";  c #550708",
":  c #5F110F",
">  c #5D1212",
",  c #571619",
"<  c #7A1214",
"1  c #751C1D",
"2  c #7F1C1C",
"3  c #451723",
"4  c #4D2523",
"5  c #42222C",
"6  c #482029",
"7  c #4F282F",
"8  c #552B2F",
"9  c #552426",
"0  c #5A3129",
"q  c #492630",
"w  c #482936",
"e  c #532D32",
"r  c #5A2E32",
"t  c #59373D",
"y  c #6B2B2C",
"u  c #7C2728",
"i  c #66392D",
"p  c #663A2D",
"a  c #6B2E30",
"s  c #6A3D31",
"d  c #623A3C",
"f  c #6C3C3A",
"g  c #643833",
"h  c #743B36",
"j  c #783E38",
"k  c #6E443B",
"l  c #79433C",
"z  c #252644",
"x  c #2A2A47",
"c  c #2B2C4A",
"v  c #282743",
"b  c #382E46",
"n  c #38374F",
"m  c #2E3251",
"M  c #373C5A",
"N  c #383D5A",
"B  c #563948",
"V  c #3F425E",
"C  c #3D4563",
"Z  c #3F4968",
"A  c #46425A",
"S  c #5F4958",
"D  c #7D4B49",
"F  c #775240",
"G  c #7E5653",
"H  c #454965",
"J  c #4E536D",
"K  c #59566B",
"L  c #5F5D71",
"P  c #635364",
"I  c #735E67",
"U  c #615E72",
"Y  c #6F6877",
"T  c #796470",
"R  c #811B1B",
"E  c #8F312E",
"W  c #95332E",
"Q  c #843E31",
"!  c #9A3735",
"~  c #8C4435",
"^  c #974436",
"/  c #8F5438",
"(  c #99523E",
")  c #8B4D4B",
"_  c #8C5D45",
"`  c #985749",
"'  c #8E4451",
"]  c #855A56",
"[  c #A04841",
"{  c #B9494E",
"}  c #A45C44",
"|  c #A55647",
" . c #AE5C52",
".. c #8E664B",
"X. c #956649",
"o. c #936347",
"O. c #936F53",
"+. c #A36149",
"@. c #AA644B",
"#. c #A96B47",
"$. c #B1674B",
"%. c #B56C4E",
"&. c #B86E4F",
"*. c #AB704F",
"=. c #B3704B",
"-. c #A76B5B",
";. c #B96F50",
":. c #A27359",
">. c #B87753",
",. c #825F63",
"<. c #8F6660",
"1. c #8E6B6C",
"2. c #9E7167",
"3. c #8C787E",
"4. c #A67F79",
"5. c #CD5458",
"6. c #C35A66",
"7. c #CC776E",
"8. c #D87970",
"9. c #B9805C",
"0. c #A28261",
"q. c #B5976E",
"w. c #AA887D",
"e. c #B9827F",
"r. c #B58B7C",
"t. c #C78859",
"y. c #D38D5A",
"u. c #C78967",
"i. c #C79068",
"p. c #DA9B6A",
"a. c #DA9565",
"s. c #CB8474",
"d. c #CA8675",
"f. c #D18B79",
"g. c #CC9674",
"h. c #E29E68",
"j. c #DDAC79",
"k. c #DDB27F",
"l. c #E3A26D",
"z. c #EBAC7A",
"x. c #E6AA71",
"c. c #FCBF7D",
"v. c #F3B375",
"b. c #FFC27F",
"n. c #8F7E85",
"m. c #837882",
"M. c #8D838B",
"N. c #918288",
"B. c #CFA292",
"V. c #D7A894",
"C. c #DDB29E",
"Z. c #E6BE88",
"A. c #F6B788",
"S. c #E5B49D",
"D. c #EEB69E",
"F. c #F6BB93",
"G. c #E3B9A6",
"H. c #E7BDA9",
"J. c #F5BAA0",
"K. c #E4C289",
"L. c #FDC582",
"P. c #FFC986",
"I. c #FACA8A",
"U. c #F9C09B",
"Y. c #FEDD9A",
"T. c #F5DF9F",
"R. c #F9C7AE",
"E. c #F6C5AD",
"W. c #FFCEB0",
"Q. c #FFD2B6",
"!. c #FFD5B8",
"~. c #FEE4A1",
"^. c #FFE9A6",
"/. c #FFF2AD",
/* pixels */
"                                                                ",
"                                                                ",
"                                                                ",
"                                                                ",
"                                                                ",
"                        . . . + 4 4 4 4 4                       ",
"                        e 7 6 e _ X.o.X.O.F                     ",
"                      q +.} ~ ( l.c.b.P.~.0.s                   ",
"                  . e +.%.%.} ~ ( p.L.P.~.T.q.0                 ",
"                + $ l ;.&.&.$.} } j.Y.Y.^./.K.*.s               ",
"                + q l } } $.&.&.;.Z./.^.Y.Y.I.a.s               ",
"                + q h ~ ~ ` @.@.@.k.~.Y.L.c.v.t.s               ",
"                + q h ~ ~ j f f f 9.x.x.l.l.a.=.p               ",
"                + q h Q h g ] r.f *.h.l.F.z.y.#.p               ",
"                + 5 D -.d r G w.2.g.z.p.r.g.h.u.s               ",
"                + # <.S.d 8 5 = C.Q.U.i.- ..A.S.k               ",
"                + # <.S.t 8 5 = C.Q.W.V.= ..A.S.k               ",
"                  @ t ] e 8 D e.E.!.!.R.e.i.l.u.s               ",
"                    @ # 5 e ) 8.s.s.d.d.7.a.t./ i               ",
"                      @ 6 r a u E W u , , =.>.0                 ",
"                        1 y B P V.J.4.* * :.p.                  ",
"                      W s.,.A J m.N.Y N c f ^                   ",
"                      E D.M.C H C C C C c 3 ;                   ",
"                      [ D.3.H L U L U K b 9 1                   ",
"                  < | D.R.` ) G.G.G.H.B.y { { >                 ",
"                  <  .!.Q.1.S n.n.n.3.I w 6.5.>                 ",
"                  < ^ f.f.T Z C N M m z x ' ! >                 ",
"                  R R 2 1 B H V x x x x v 3 : >                 ",
"                        + n C x O & x v o                       ",
"                        X % & O   O O O                         ",
"                        X X X X     X X                         ",
"                                                                "
};
