/* XPM */
static char *d0e2c37a1eed4d2b87652a14ef2fb04dOXelt5Xx4tQn6UTh[] = {
/* columns rows colors chars-per-pixel */
"32 32 81 1 ",
"  c black",
". c #89503F",
"X c #88503F",
"o c #88503F",
"O c #88503F",
"+ c #874F3F",
"@ c #884F3F",
"# c #874F3F",
"$ c #874F3F",
"% c #8B513E",
"& c #8C523E",
"* c #88503F",
"= c #88503F",
"- c #884F3F",
"; c #884F3F",
": c #8D523E",
"> c #94563C",
", c #854E40",
"< c #874F40",
"1 c #8B513E",
"2 c #8C523E",
"3 c #884F3F",
"4 c #8D523E",
"5 c None",
"6 c #8A503E",
"7 c #8B513D",
"8 c #8C513D",
"9 c #92543B",
"0 c #88503F",
"q c #8D523D",
"w c #97583B",
"e c #8C513D",
"r c #965A3F",
"t c #AA6A44",
"y c #B47346",
"u c #B37246",
"i c #96573A",
"p c #95563A",
"a c #A86943",
"s c #CE8E54",
"d c #E1A15D",
"f c #E1A05D",
"g c #E09F5C",
"h c #975A40",
"j c #B37245",
"k c #B27145",
"l c #C3834E",
"z c #E6A660",
"x c #F8B869",
"c c #F7B769",
"v c #F6B668",
"b c #E0A05D",
"n c #E5A55F",
"m c #F0B065",
"M c #F5B568",
"N c #F4B467",
"B c #F7B768",
"V c #F5B567",
"C c #95593F",
"Z c #A86843",
"A c #CD8D54",
"S c #884F3F",
"D c #925740",
"F c #A86944",
"G c #C5854F",
"H c #E7A760",
"J c #864E3E",
"K c #9D6346",
"L c #CB8C55",
"P c #E8A861",
"I c #F2B266",
"U c #864D3E",
"Y c #9E6346",
"T c #CB8C56",
"R c #E8A860",
"E c #F1B165",
"W c #DF9F5C",
"Q c #C4844E",
"! c #F5B668",
"~ c #8C523D",
"^ c white",
/* pixels */
"   ......oO0000000000Oo......   ",
" ..X.+@#$%&qqqqqqqqqq&%$#@+.X.. ",
" ....*=-;:>wwwwwwwwww>:;-=*.... ",
".X.,<12eertyyuuuuuuyytree21<,.X.",
"...<345ipasdfggggggfdsapi543<...",
".+*14htjklzxcvvvvvvcxzlkjth41*+.",
".@=25tsdbnmvvMMMMMMvvmnbdst52=@.",
".#-eijdxcvNNNNNNNNNNNNvcxdjie-#.",
".$;epkbcBVNNNNNNNNNNNNVBcbkpe;$.",
"o67CZlnvVNNNNNNNNNNNNNNVvnlar:%o",
"O89aAzmNNNNNNNNNNNNNNNNNNmzst>&O",
"SDFGHcMNNNNNNNNNNNNNNNNNNvxdywq0",
"JKLPIMVNNNNNNNNNNNNNNNNNNvcfywq0",
"UYTRENNNNNNNNNNNNNNNNNNNNMvWkie0",
"SDFQn!VNNNNNNNNNNNNNNNNNNMvWkpe0",
"0epkWvMNNNNNNNNNNNNNNNNNNV!nQFDS",
"0eikWvMNNNNNNNNNNNNNNNNNNNNERTYU",
"0qwugvMNNNNNNNNNNNNNNNNNNNNERTYU",
"0qwugvMNNNNNNNNNNNNNNNNNNV!nQFDS",
"0qwyfcvNNNNNNNNNNNNNNNNNNvcbkpe0",
"0qwydxvNNNNNNNNNNNNNNNNNNvxdji~0",
"O&>tszmNNNNNNNNNNNNNNNNNNmzst>&O",
"o%:ralnvVNNNNNNNNNNNNNNVvnlar:%o",
".$;epkbcBVNNNNNNNNNNNNVBcbkpe;$.",
".#-eijdxcvNNNNNNNNNNNNvcxdjie-#.",
".@=25tsdbnmvvMMMMMMvvmnbdst52=@.",
".+*14htjklzxcvvvvvvcxzlkjth41*+.",
"...<345ipasdfggggggfdsapi543<...",
".X.,<12eertyyuuuuuuyytree21<,.X.",
" ....*=-;:>wwwwwwwwww>:;-=*.... ",
" ..X.+@#$%&qqqqqqqqqq&%$#@+.X.. ",
"   ......oO0000000000Oo......   "
};
