/* XPM */
static char *ea0e36caaed4460fc1bdc768f22a06c7lwlcBEP1arNCBvjw[] = {
/* columns rows colors chars-per-pixel */
"32 32 4 1 ",
"  c #A5C543",
". c #884F3E",
"X c #9E5C38",
"o c #F5B566",
/* pixels */
"                                ",
"                                ",
"           ..........           ",
"           ..........           ",
"       ....XXXXXXXXXX....       ",
"      .XXXXooooooooooXXXX..     ",
"      .XXXXooooooooooXXXX..     ",
"    ..XooooooooooooooooooXX.    ",
"    ..XooooooooooooooooooXX.    ",
"    ..XooooooooooooooooooXX.    ",
"    ..XooooooooooooooooooXX.    ",
"  ..XXoooooooooooooooooooooX..  ",
"  ..oooooooooooooooooooooooX..  ",
"  ..oooooooooooooooooooooooX..  ",
"  ..XXoooooooooooooooooooooX..  ",
"  ..XXoooooooooooooooooooooX..  ",
"  ..XXoooooooooooooooooooooo..  ",
"  ..XXoooooooooooooooooooooo..  ",
"  ..XXoooooooooooooooooooooX..  ",
"  ..XXoooooooooooooooooooooX..  ",
"  ..XXoooooooooooooooooooooX..  ",
"    ..XooooooooooooooooooXX.    ",
"    ..XooooooooooooooooooXX.    ",
"    ..XooooooooooooooooooXX.    ",
"    ..XooooooooooooooooooXX.    ",
"      .XXXXooooooooooXXXX..     ",
"      .XXXXooooooooooXXXX..     ",
"       ....XXXXXXXXXX....       ",
"           ..........           ",
"           ..........           ",
"                                ",
"                                "
};
